<svg width="383" height="74" viewBox="0 0 383 74" fill="none" xmlns="http://www.w3.org/2000/svg">
<path d="M73.4689 72V4.68912H81.0654V44.8833L119.721 4.68912H129.529L100.682 34.1136L130.779 72H121.26L95.393 39.4023L81.0654 53.9222V72H73.4689ZM155.598 73.0577C138.963 73.0577 127.616 62.865 127.616 43.8256V4.68912H135.212V43.3448C135.212 57.9609 142.809 66.0382 155.79 66.0382C168.195 66.0382 176.08 58.5378 176.08 43.8256V4.68912H183.676V43.2486C183.676 62.9611 172.426 73.0577 155.598 73.0577ZM189.137 72V4.68912H212.503C233.658 4.68912 248.274 19.209 248.274 38.1522V38.3446C248.274 57.2878 233.658 72 212.503 72H189.137ZM196.733 64.9804H212.503C229.523 64.9804 240.389 53.5376 240.389 38.5369V38.3446C240.389 23.44 229.523 11.7087 212.503 11.7087H196.733V64.9804ZM283.105 73.1539C262.624 73.1539 248.873 57.0954 248.873 38.5369V38.3446C248.873 19.786 262.816 3.53522 283.298 3.53522C303.78 3.53522 317.53 19.5937 317.53 38.1522V38.3446C317.53 56.9031 303.587 73.1539 283.105 73.1539ZM283.298 66.1343C298.683 66.1343 309.645 53.8261 309.645 38.5369V38.3446C309.645 23.0554 298.491 10.5548 283.105 10.5548C267.72 10.5548 256.758 22.8631 256.758 38.1522V38.3446C256.758 53.6337 267.912 66.1343 283.298 66.1343ZM343.659 72.9616C332.889 72.9616 324.235 69.4999 316.158 62.1918L320.869 56.6147C327.889 63.0573 334.62 66.1343 343.947 66.1343C353.082 66.1343 358.948 61.3264 358.948 54.6915V54.4992C358.948 48.2489 355.583 44.7872 341.447 41.7101C325.966 38.3446 318.85 33.3443 318.85 22.2861V22.0938C318.85 11.6125 328.177 3.72754 340.967 3.72754C350.871 3.72754 357.698 6.51613 364.621 11.9972L360.198 17.8628C353.948 12.7664 347.698 10.5548 340.774 10.5548C331.928 10.5548 326.447 15.2665 326.447 21.4207V21.613C326.447 27.9595 329.812 31.6135 344.717 34.6905C359.717 38.0561 366.641 43.441 366.641 53.7299V53.9222C366.641 65.4612 357.025 72.9616 343.659 72.9616Z" fill="#DBD1C1"/>
<path d="M21.7078 24.5583L45.6396 31.9774C48.0595 32.7882 50.1591 35.4193 48.2196 38.2799C46.9385 40.4368 37.3836 49.3856 37.3836 49.3856C37.3302 49.5539 6.51246 39.7178 6.51246 39.7178C4.00362 38.8918 2.54458 36.6431 3.36307 34.0273C4.18156 31.4114 18.8075 23.564 21.7078 24.543V24.5583Z" fill="#B72927"/>
<path d="M21.7254 24.5446L45.6572 31.9638C48.0771 32.7745 50.1767 35.4056 48.2372 38.2662C46.9561 40.4231 37.4012 49.3719 37.4012 49.3719C37.3478 49.5402 6.53004 39.7041 6.53004 39.7041C4.0212 38.8781 2.56216 36.6294 3.38065 34.0136C4.19913 31.3978 18.8251 23.5503 21.7254 24.5293V24.5446Z" fill="url(#paint0_linear_9480_1061)" style="mix-blend-mode:multiply"/>
<path d="M21.7078 24.5446L45.6396 31.9638C48.0595 32.7745 50.1591 35.4056 48.2196 38.2662C46.9385 40.4231 37.3836 49.3719 37.3836 49.3719C37.3302 49.5402 6.51246 39.7041 6.51246 39.7041C4.00362 38.8781 2.54458 36.6294 3.36307 34.0136C4.18156 31.3978 18.8075 23.5503 21.7078 24.5293V24.5446Z" fill="url(#paint1_linear_9480_1061)" style="mix-blend-mode:multiply"/>
<path d="M52.3273 23.4125C53.1991 22.7241 65.9568 12.5821 82.3621 0.374931C82.5757 0.206662 82.3621 -0.0839847 82.0952 0.0230956C74.5331 3.34258 59.3378 6.40202 59.3378 6.40202L28.1641 11.3889C17.5416 13.2552 16.563 14.7849 12.2748 20.7202L11.1361 22.2652C11.0827 22.3417 9.2678 25.1564 3.43164 33.8605C5.21096 31.2141 7.22158 30.9999 19.1786 29.0724C21.4561 28.6594 26.883 27.5886 30.2815 26.992C34.9967 26.166 51.064 23.6267 52.2027 23.4431C52.2561 23.4431 52.2739 23.4278 52.3095 23.3972L52.3273 23.4125Z" fill="#E73928"/>
<path d="M12.2061 45.9149L0 64.7763L23.9674 59.9118C34.5721 57.9996 35.5508 56.4699 39.8211 50.5193L40.9599 48.959C40.9599 48.959 42.3299 47.1539 48.2195 38.2969C46.5469 40.928 39.9813 40.8821 32.8996 42.1977C30.622 42.626 12.2239 45.9149 12.2239 45.9149H12.2061Z" fill="#E73928"/>
<defs>
<linearGradient id="paint0_linear_9480_1061" x1="33.4511" y1="51.1311" x2="24.7541" y2="26.7316" gradientUnits="userSpaceOnUse">
<stop stop-color="white"/>
<stop offset="0.32" stop-color="#FDFCFD"/>
<stop offset="0.47" stop-color="#F9F5F6"/>
<stop offset="0.57" stop-color="#F2E9EA"/>
<stop offset="0.66" stop-color="#E8D7DA"/>
<stop offset="0.74" stop-color="#DABFC4"/>
<stop offset="0.81" stop-color="#CAA3AA"/>
<stop offset="0.87" stop-color="#B6818B"/>
<stop offset="0.93" stop-color="#A05966"/>
<stop offset="0.98" stop-color="#872D3E"/>
<stop offset="1" stop-color="#7E1E30"/>
</linearGradient>
<linearGradient id="paint1_linear_9480_1061" x1="27.7753" y1="38.5568" x2="34.5342" y2="52.913" gradientUnits="userSpaceOnUse">
<stop stop-color="white"/>
<stop offset="0.22" stop-color="#FCFCFC"/>
<stop offset="0.35" stop-color="#F3F3F3"/>
<stop offset="0.47" stop-color="#E5E5E5"/>
<stop offset="0.57" stop-color="#D0D0D0"/>
<stop offset="0.66" stop-color="#B5B5B5"/>
<stop offset="0.75" stop-color="#959595"/>
<stop offset="0.83" stop-color="#6D6D6D"/>
<stop offset="0.91" stop-color="#404040"/>
<stop offset="0.98" stop-color="#0E0E0E"/>
<stop offset="1"/>
</linearGradient>
</defs>
</svg>
